<?xml version="1.0" encoding="UTF-8" standalone="no"?>
<!-- Created with Inkscape (http://www.inkscape.org/) -->

<svg
   xmlns:dc="http://purl.org/dc/elements/1.1/"
   xmlns:cc="http://creativecommons.org/ns#"
   xmlns:rdf="http://www.w3.org/1999/02/22-rdf-syntax-ns#"
   xmlns:svg="http://www.w3.org/2000/svg"
   xmlns="http://www.w3.org/2000/svg"
   xmlns:sodipodi="http://sodipodi.sourceforge.net/DTD/sodipodi-0.dtd"
   xmlns:inkscape="http://www.inkscape.org/namespaces/inkscape"
   width="16"
   height="16"
   viewBox="0 0 16 16"
   id="svg4179"
   version="1.1"
   inkscape:version="0.91 r13725"
   sodipodi:docname="projection.svg"
   inkscape:export-filename="D:\MyDocs\dev\Knime\AndlRa\Inkscape\ra-icons\projection.png"
   inkscape:export-xdpi="90"
   inkscape:export-ydpi="90">
  <defs
     id="defs4181" />
  <sodipodi:namedview
     id="base"
     pagecolor="#ffffff"
     bordercolor="#666666"
     borderopacity="1.0"
     inkscape:pageopacity="0.0"
     inkscape:pageshadow="2"
     inkscape:zoom="22.4"
     inkscape:cx="-0.90769947"
     inkscape:cy="7.4908396"
     inkscape:document-units="px"
     inkscape:current-layer="layer1"
     showgrid="false"
     units="px"
     inkscape:window-width="1811"
     inkscape:window-height="1057"
     inkscape:window-x="101"
     inkscape:window-y="1"
     inkscape:window-maximized="1" />
  <metadata
     id="metadata4184">
    <rdf:RDF>
      <cc:Work
         rdf:about="">
        <dc:format>image/svg+xml</dc:format>
        <dc:type
           rdf:resource="http://purl.org/dc/dcmitype/StillImage" />
        <dc:title></dc:title>
      </cc:Work>
    </rdf:RDF>
  </metadata>
  <g
     inkscape:label="Layer 1"
     inkscape:groupmode="layer"
     id="layer1"
     transform="translate(0,-1036.3622)">
    <g
       style="font-style:normal;font-weight:normal;font-size:12px;font-family:Dialog;display:inline;color-interpolation:auto;fill:#000000;fill-opacity:1;stroke:#000000;stroke-width:1;stroke-linecap:square;stroke-linejoin:miter;stroke-miterlimit:10;stroke-dasharray:none;stroke-dashoffset:0;stroke-opacity:1;color-rendering:auto;image-rendering:auto;shape-rendering:auto;text-rendering:auto"
       id="g5934"
       transform="matrix(0.0713788,0,0,0.06520217,-0.51192162,1025.3043)"
       inkscape:export-xdpi="90"
       inkscape:export-ydpi="90">
      <g
         id="g5924">
        <g
           id="g5926">
          <path
             id="path5928"
             d="m 231.3281,414.9844 -79.0312,0 0,-6.6094 q 16.1719,0 22.3593,-5.4844 5.625,-5.0625 5.625,-17.8594 l 0,-203.0624 -122.0624,0 0,203.0624 q 0,12.7969 5.625,17.8594 6.0468,5.4844 22.2187,5.4844 l 0,6.6094 -78.8906,0 0,-6.6094 q 16.1719,0 22.3593,-5.4844 5.625,-5.0625 5.625,-17.8594 l 0,-185.4843 q 0,-12.7969 -5.625,-17.8594 -6.1874,-5.4844 -22.3593,-5.4844 l 0,-6.6093 224.1562,0 0,6.6093 q -16.1719,0 -22.3593,5.4844 -5.625,5.0625 -5.625,17.8594 l 0,185.4843 q 0,12.7969 5.625,17.8594 6.1874,5.4844 22.3593,5.4844 l 0,6.6094 z"
             inkscape:connector-curvature="0"
             style="stroke:none" />
        </g>
      </g>
    </g>
  </g>
</svg>
