<?xml version="1.0" encoding="UTF-8" standalone="no"?>
<!-- Created with Inkscape (http://www.inkscape.org/) -->

<svg
   xmlns:dc="http://purl.org/dc/elements/1.1/"
   xmlns:cc="http://creativecommons.org/ns#"
   xmlns:rdf="http://www.w3.org/1999/02/22-rdf-syntax-ns#"
   xmlns:svg="http://www.w3.org/2000/svg"
   xmlns="http://www.w3.org/2000/svg"
   xmlns:sodipodi="http://sodipodi.sourceforge.net/DTD/sodipodi-0.dtd"
   xmlns:inkscape="http://www.inkscape.org/namespaces/inkscape"
   width="16"
   height="16"
   viewBox="0 0 16 16"
   id="svg4179"
   version="1.1"
   inkscape:version="0.91 r13725"
   sodipodi:docname="selection.svg"
   inkscape:export-filename="D:\MyDocs\dev\Knime\AndlRa\Inkscape\ra-icons\selection.png"
   inkscape:export-xdpi="90"
   inkscape:export-ydpi="90">
  <defs
     id="defs4181" />
  <sodipodi:namedview
     id="base"
     pagecolor="#ffffff"
     bordercolor="#666666"
     borderopacity="1.0"
     inkscape:pageopacity="0.0"
     inkscape:pageshadow="2"
     inkscape:zoom="22.4"
     inkscape:cx="-0.90769947"
     inkscape:cy="7.4908396"
     inkscape:document-units="px"
     inkscape:current-layer="layer1"
     showgrid="false"
     units="px"
     inkscape:window-width="1811"
     inkscape:window-height="1057"
     inkscape:window-x="101"
     inkscape:window-y="1"
     inkscape:window-maximized="1" />
  <metadata
     id="metadata4184">
    <rdf:RDF>
      <cc:Work
         rdf:about="">
        <dc:format>image/svg+xml</dc:format>
        <dc:type
           rdf:resource="http://purl.org/dc/dcmitype/StillImage" />
        <dc:title></dc:title>
      </cc:Work>
    </rdf:RDF>
  </metadata>
  <g
     inkscape:label="Layer 1"
     inkscape:groupmode="layer"
     id="layer1"
     transform="translate(0,-1036.3622)">
    <g
       style="font-style:normal;font-weight:normal;font-size:12px;font-family:Dialog;display:inline;color-interpolation:auto;fill:#000000;fill-opacity:1;stroke:#000000;stroke-width:1;stroke-linecap:square;stroke-linejoin:miter;stroke-miterlimit:10;stroke-dasharray:none;stroke-dashoffset:0;stroke-opacity:1;color-rendering:auto;image-rendering:auto;shape-rendering:auto;text-rendering:auto"
       id="g6026"
       transform="matrix(0.09885123,0,0,0.10167807,-1.0008687,1012.7697)"
       inkscape:export-xdpi="90"
       inkscape:export-ydpi="90">
      <g
         id="g6016">
        <g
           id="g6018">
          <path
             id="path6020"
             d="m 171.9844,253.125 q -19.9688,1.9688 -31.7813,1.9688 9.8438,22.9218 9.8438,56.25 0,37.9687 -19.7578,58.0078 -19.7579,20.039 -50.5547,20.039 -30.7969,0 -50.2032,-20.25 -19.4062,-20.25 -19.4062,-57.7968 0,-37.9688 19.6875,-58.0079 19.6875,-20.039 49.9219,-20.039 l 47.8125,1.125 q 23.625,0 44.4375,-2.3907 l 0,21.0938 z m -47.8125,58.2188 q 0,-35.2969 -10.9688,-56.25 l -33.1875,-1.125 q -19.2656,0 -31.6406,15.3281 Q 36,284.625 36,311.3438 q 0,26.5781 12.375,41.9062 12.375,15.3281 31.6406,15.3281 19.2656,0 31.711,-15.3984 12.4453,-15.3985 12.4453,-41.8359 z"
             inkscape:connector-curvature="0"
             style="stroke:none" />
        </g>
      </g>
    </g>
  </g>
</svg>
