<?xml version="1.0" encoding="UTF-8" standalone="no"?>
<!-- Generator: Adobe Illustrator 19.1.0, SVG Export Plug-In . SVG Version: 6.00 Build 0)  -->

<svg
   xmlns:dc="http://purl.org/dc/elements/1.1/"
   xmlns:cc="http://creativecommons.org/ns#"
   xmlns:rdf="http://www.w3.org/1999/02/22-rdf-syntax-ns#"
   xmlns:svg="http://www.w3.org/2000/svg"
   xmlns="http://www.w3.org/2000/svg"
   xmlns:sodipodi="http://sodipodi.sourceforge.net/DTD/sodipodi-0.dtd"
   xmlns:inkscape="http://www.inkscape.org/namespaces/inkscape"
   version="1.1"
   id="Ebene_1"
   x="0px"
   y="0px"
   viewBox="-412 290.3 16 16"
   style="enable-background:new -412 290.3 16 16;"
   xml:space="preserve"
   inkscape:version="0.91 r13725"
   sodipodi:docname="knime.svg"><metadata
     id="metadata4742"><rdf:RDF><cc:Work
         rdf:about=""><dc:format>image/svg+xml</dc:format><dc:type
           rdf:resource="http://purl.org/dc/dcmitype/StillImage" /><dc:title></dc:title></cc:Work></rdf:RDF></metadata><defs
     id="defs4740" /><sodipodi:namedview
     pagecolor="#ffffff"
     bordercolor="#666666"
     borderopacity="1"
     objecttolerance="10"
     gridtolerance="10"
     guidetolerance="10"
     inkscape:pageopacity="0"
     inkscape:pageshadow="2"
     inkscape:window-width="1811"
     inkscape:window-height="1057"
     id="namedview4738"
     showgrid="false"
     inkscape:zoom="11.431456"
     inkscape:cx="21.547801"
     inkscape:cy="9.3060325"
     inkscape:window-x="101"
     inkscape:window-y="1"
     inkscape:window-maximized="1"
     inkscape:current-layer="layer2" /><style
     type="text/css"
     id="style4720">
	.st0{fill:#FFFFFF;}
</style><g
     id="g4722"
     transform="translate(-0.11588902,-0.11009557)"><g
       id="g4724"><rect
         x="-401"
         y="291.29999"
         class="st0"
         width="4"
         height="14"
         id="rect4726"
         style="fill:#ffffff" /><path
         d="m -396,306.3 0,-16 -6,0 0,16 6,0 z m -5,-15 4,0 0,14 -4,0 0,-14 z"
         id="path4728"
         inkscape:connector-curvature="0" /></g><g
       id="g4730"><path
         d="m -404.5,293.3 0,9.9 -2,0 0,-1.2 0.9,0 0,-7.5 -0.9,0 0,-1.2 2,0 z"
         id="path4732"
         inkscape:connector-curvature="0" /><path
         d="m -412,303.2 0,-9.9 1.9,0 0,1.2 -0.9,0 0,7.6 0.9,0 0,1.2 -1.9,0 0,-0.1 z"
         id="path4734"
         inkscape:connector-curvature="0" /></g></g><g
     id="XMLID_7_"
     transform="translate(-0.11588902,-0.11009557)"><polygon
       id="XMLID_9_"
       points="-398.8,298.7 -398.8,297.9 -407.6,297.9 -407.6,296.7 -410.4,298.3 -407.6,299.9 -407.6,298.7 " /></g><g
     inkscape:groupmode="layer"
     id="layer1"
     inkscape:label="bg"
     style="display:inline"><rect
       y="291.41296"
       x="-432.38336"
       height="16"
       width="16"
       id="rect5897"
       style="color:#000000;clip-rule:nonzero;display:inline;overflow:visible;visibility:visible;opacity:1;isolation:auto;mix-blend-mode:normal;color-interpolation:sRGB;color-interpolation-filters:linearRGB;solid-color:#000000;solid-opacity:1;fill:#00ff00;fill-opacity:1;fill-rule:evenodd;stroke:none;stroke-width:9;stroke-linecap:square;stroke-linejoin:miter;stroke-miterlimit:4;stroke-dasharray:none;stroke-dashoffset:0;stroke-opacity:1;color-rendering:auto;image-rendering:auto;shape-rendering:auto;text-rendering:auto;enable-background:accumulate" /></g><g
     inkscape:groupmode="layer"
     id="layer2"
     inkscape:label="active"
     style="display:inline"><text
       xml:space="preserve"
       style="font-style:normal;font-variant:normal;font-weight:normal;font-stretch:normal;font-size:8.3913269px;line-height:125%;font-family:'Arial Rounded MT Bold';-inkscape-font-specification:'Arial Rounded MT Bold, Normal';text-align:start;letter-spacing:0px;word-spacing:0px;writing-mode:lr-tb;text-anchor:start;fill:#000000;fill-opacity:1;stroke:none;stroke-width:1px;stroke-linecap:butt;stroke-linejoin:miter;stroke-opacity:1"
       x="-378.18661"
       y="374.9295"
       id="text5884"
       sodipodi:linespacing="125%"
       transform="scale(1.1478494,0.87119442)"
       inkscape:export-xdpi="90"
       inkscape:export-ydpi="90"><tspan
         sodipodi:role="line"
         id="tspan5886"
         x="-378.18661"
         y="374.9295"
         style="font-size:19.57976532px">{}</tspan></text>
<g
       style="font-style:normal;font-weight:normal;font-size:12px;font-family:Dialog;display:inline;color-interpolation:auto;fill:#000000;fill-opacity:1;stroke:#000000;stroke-width:1;stroke-linecap:square;stroke-linejoin:miter;stroke-miterlimit:10;stroke-dasharray:none;stroke-dashoffset:0;stroke-opacity:1;color-rendering:auto;image-rendering:auto;shape-rendering:auto;text-rendering:auto"
       id="g5912"
       transform="matrix(0.08126984,0,0,0.08126984,-432.86577,253.65083)"
       inkscape:export-xdpi="90"
       inkscape:export-ydpi="90"><g
         id="g5902"><g
           id="g5904"><path
             id="path5906"
             d="m 14.0625,365.625 0,-196.875 16.875,0 81.5625,81.5625 81.5625,-81.5625 16.875,0 0,196.875 -16.875,0 -81.5625,-81.5625 -81.5625,81.5625 -16.875,0 z m 22.5,-39.375 59.0625,-59.0625 -59.0625,-59.0625 0,118.125 z m 151.875,0 0,-118.125 -59.0625,59.0625 59.0625,59.0625 z"
             inkscape:connector-curvature="0"
             style="stroke:none" /></g></g></g><g
       style="font-style:normal;font-weight:normal;font-size:12px;font-family:Dialog;color-interpolation:auto;fill:#000000;fill-opacity:1;stroke:#000000;stroke-width:1;stroke-linecap:square;stroke-linejoin:miter;stroke-miterlimit:10;stroke-dasharray:none;stroke-dashoffset:0;stroke-opacity:1;color-rendering:auto;image-rendering:auto;shape-rendering:auto;text-rendering:auto"
       id="g5934"
       transform="matrix(0.0713788,0,0,0.06520217,-409.46142,256.62369)"
       inkscape:export-xdpi="90"
       inkscape:export-ydpi="90"><g
         id="g5924"><g
           id="g5926"><path
             id="path5928"
             d="m 231.3281,414.9844 -79.0312,0 0,-6.6094 q 16.1719,0 22.3593,-5.4844 5.625,-5.0625 5.625,-17.8594 l 0,-203.0624 -122.0624,0 0,203.0624 q 0,12.7969 5.625,17.8594 6.0468,5.4844 22.2187,5.4844 l 0,6.6094 -78.8906,0 0,-6.6094 q 16.1719,0 22.3593,-5.4844 5.625,-5.0625 5.625,-17.8594 l 0,-185.4843 q 0,-12.7969 -5.625,-17.8594 -6.1874,-5.4844 -22.3593,-5.4844 l 0,-6.6093 224.1562,0 0,6.6093 q -16.1719,0 -22.3593,5.4844 -5.625,5.0625 -5.625,17.8594 l 0,185.4843 q 0,12.7969 5.625,17.8594 6.1874,5.4844 22.3593,5.4844 l 0,6.6094 z"
             inkscape:connector-curvature="0"
             style="stroke:none" /></g></g></g><g
       style="font-style:normal;font-weight:normal;font-size:12px;font-family:Dialog;color-interpolation:auto;fill:#000000;fill-opacity:1;stroke:#000000;stroke-width:1;stroke-linecap:square;stroke-linejoin:miter;stroke-miterlimit:10;stroke-dasharray:none;stroke-dashoffset:0;stroke-opacity:1;color-rendering:auto;image-rendering:auto;shape-rendering:auto;text-rendering:auto"
       id="g5954"
       transform="matrix(0.11657559,0,0,0.08126984,-384.12566,248.61627)"><g
         id="g5944"><g
           id="g5946"><path
             id="path5948"
             d="m 11.25,434.25 0,-132.75 q 0,-15.1875 8.1562,-30.6562 8.1563,-15.4688 23.3438,-24.4688 15.1875,-9 37.125,-9 21.9375,0 37.125,9 15.1875,9 23.3438,24.4688 8.1562,15.4687 8.1562,30.6562 0,15.1875 -8.1562,30.6562 -8.1563,15.4688 -23.3438,24.4688 -15.1875,9 -37.125,9 -13.5,0 -25.875,-3.7969 l 0,72.4219 -42.75,0 z M 79.875,351 q 9.5625,0 17.7188,-11.8125 8.1562,-11.8125 8.1562,-37.6875 0,-25.875 -8.1562,-37.6875 Q 89.4375,252 79.875,252 70.3125,252 62.1562,263.8125 54,275.625 54,301.5 54,327.375 62.1562,339.1875 70.3125,351 79.875,351 Z"
             inkscape:connector-curvature="0"
             style="stroke:none" /></g></g></g><g
       style="font-style:normal;font-weight:normal;font-size:12px;font-family:Dialog;color-interpolation:auto;fill:#000000;fill-opacity:1;stroke:#000000;stroke-width:1;stroke-linecap:square;stroke-linejoin:miter;stroke-miterlimit:10;stroke-dasharray:none;stroke-dashoffset:0;stroke-opacity:1;color-rendering:auto;image-rendering:auto;shape-rendering:auto;text-rendering:auto"
       id="g5972"
       transform="matrix(0.09825366,0,0,0.12475634,-359.5685,238.47287)"><g
         id="g5962"><g
           id="g5964"><path
             id="path5966"
             d="m 79.875,365.625 q -21.9375,0 -37.125,-9 -15.1875,-9 -23.3438,-24.4688 Q 11.25,316.6875 11.25,301.5 q 0,-15.1875 8.1562,-30.6562 8.1563,-15.4688 23.3438,-24.4688 15.1875,-9 37.125,-9 l 88.5938,0 q 3.6562,3.6562 4.6406,6.8906 0.9844,3.2344 0.9844,6.6094 0,3.375 -0.9844,6.6094 -0.9844,3.2344 -4.6406,6.8906 l -32.0626,0 q 6.3282,9.4219 9.211,18.9141 2.8828,9.4921 2.8828,18.2109 0,15.1875 -8.1562,30.6562 -8.1563,15.4688 -23.3438,24.4688 -15.1875,9 -37.125,9 z m 0,-14.625 q 9.5625,0 17.7188,-11.8125 8.1562,-11.8125 8.1562,-37.6875 0,-11.25 -1.8281,-19.2656 -1.8281,-8.0156 -5.7657,-17.8594 l -29.5312,0 q -7.3125,6.1875 -10.9688,15.75 Q 54,289.6875 54,301.5 54,327.375 62.1562,339.1875 70.3125,351 79.875,351 Z"
             inkscape:connector-curvature="0"
             style="stroke:none" /></g></g></g><g
       style="font-style:normal;font-weight:normal;font-size:12px;font-family:Dialog;color-interpolation:auto;fill:#000000;fill-opacity:1;stroke:#000000;stroke-width:1;stroke-linecap:square;stroke-linejoin:miter;stroke-miterlimit:10;stroke-dasharray:none;stroke-dashoffset:0;stroke-opacity:1;color-rendering:auto;image-rendering:auto;shape-rendering:auto;text-rendering:auto"
       id="g5990"
       transform="matrix(0.11814937,0,0,0.0762075,-387.10712,272.66237)"
       inkscape:export-xdpi="90"
       inkscape:export-ydpi="90"><g
         id="g5980"><g
           id="g5982"><path
             id="path5984"
             d="m 18.9844,443.25 0,-129.9375 q 0,-80.0156 66.2344,-80.0156 30.6562,0 49.9218,21.375 19.2656,21.375 19.2656,56.9531 0,36 -18.7031,56.8828 -18.7031,20.8828 -46.9687,20.8828 -27.7032,0 -44.4375,-17.5781 l 0,71.4375 -25.3125,0 z m 66.2344,-74.6719 q 19.125,0 31.1484,-14.414 12.0234,-14.4141 12.0234,-42.5391 0,-28.6875 -12.9375,-43.1719 -12.9375,-14.4843 -30.2343,-14.4843 -19.9688,0 -30.3047,15.2578 -10.336,15.2578 -10.336,43.5234 0,27 10.4063,41.4141 10.4062,14.414 30.2344,14.414 z"
             inkscape:connector-curvature="0"
             style="stroke:none" /></g></g></g><g
       style="font-style:normal;font-weight:normal;font-size:12px;font-family:Dialog;color-interpolation:auto;fill:#000000;fill-opacity:1;stroke:#000000;stroke-width:1;stroke-linecap:square;stroke-linejoin:miter;stroke-miterlimit:10;stroke-dasharray:none;stroke-dashoffset:0;stroke-opacity:1;color-rendering:auto;image-rendering:auto;shape-rendering:auto;text-rendering:auto"
       id="g6026"
       transform="matrix(0.09885123,0,0,0.10167807,-361.02981,266.94535)"
       inkscape:export-xdpi="90"
       inkscape:export-ydpi="90"><g
         id="g6016"><g
           id="g6018"><path
             id="path6020"
             d="m 171.9844,253.125 q -19.9688,1.9688 -31.7813,1.9688 9.8438,22.9218 9.8438,56.25 0,37.9687 -19.7578,58.0078 -19.7579,20.039 -50.5547,20.039 -30.7969,0 -50.2032,-20.25 -19.4062,-20.25 -19.4062,-57.7968 0,-37.9688 19.6875,-58.0079 19.6875,-20.039 49.9219,-20.039 l 47.8125,1.125 q 23.625,0 44.4375,-2.3907 l 0,21.0938 z m -47.8125,58.2188 q 0,-35.2969 -10.9688,-56.25 l -33.1875,-1.125 q -19.2656,0 -31.6406,15.3281 Q 36,284.625 36,311.3438 q 0,26.5781 12.375,41.9062 12.375,15.3281 31.6406,15.3281 19.2656,0 31.711,-15.3984 12.4453,-15.3985 12.4453,-41.8359 z"
             inkscape:connector-curvature="0"
             style="stroke:none" /></g></g></g></g></svg>